<?xml version="1.0" encoding="UTF-8"?>
<svg id="Layer_1" data-name="Layer 1" xmlns="http://www.w3.org/2000/svg" viewBox="0 0 423.76 260.66">
  <defs>
    <style>
      .cls-1 {
        fill: #00cd00;
      }

      .cls-1, .cls-2, .cls-3, .cls-4 {
        stroke-width: 0px;
      }

      .cls-2 {
        fill: #fff;
      }

      .cls-3 {
        fill: #e65352;
      }

      .cls-4 {
        fill: #00cd00;
      }
    </style>
  </defs>
  <g>
    <polygon class="cls-3" points="423.76 191.43 0 260.66 0 215.72 423.76 146.49 423.76 191.43"/>
    <g>
      <path class="cls-2" d="m39.4,221.46l4.9-.79,1.73,10.53,2.18-11.17,3.3-.53,2.17,10.46,1.7-11.09,4.9-.79-4.11,21.56-3.85.62-2.47-9.21-2.47,10-3.88.62-4.09-20.24Z"/>
      <path class="cls-2" d="m61.99,238.71v-20.9l10.62-1.71v4.84l-5.67.91v2.99l5.35-.86v4.69l-5.35.86v3.54l5.67-.91v4.84l-10.62,1.71Z"/>
      <path class="cls-2" d="m80.81,214.78l4.9-.79,1.73,10.53,2.18-11.17,3.3-.53,2.17,10.46,1.7-11.09,4.9-.79-4.12,21.56-3.85.62-2.47-9.21-2.47,10-3.88.62-4.09-20.24Z"/>
      <path class="cls-2" d="m100.86,232.45l4.93-21.72,5.89-.95,4.78,20.16-5.17.83-.71-3.79-3.94.63-.74,4.03-5.03.81Zm6.6-9.33l2.3-.37-1.14-6.36-1.17,6.73Z"/>
      <path class="cls-2" d="m118.23,229.65v-20.9l4.96-.8,4.07,10.01v-10.67l4.96-.8v20.9l-4.96.8-4.07-9.62v10.28l-4.96.8Z"/>
      <path class="cls-2" d="m134.59,210.95v-4.84l12.36-1.99v4.84l-3.7.6v16.06l-4.95.8v-16.06l-3.7.6Z"/>
      <path class="cls-2" d="m155.43,207.6v-4.84l12.36-1.99v4.84l-3.7.6v16.06l-4.95.8v-16.06l-3.7.6Z"/>
      <path class="cls-2" d="m169.19,215.52v-9.07c0-1.19.3-2.33.9-3.42.6-1.1,1.41-2.02,2.43-2.76,1.02-.74,2.15-1.21,3.36-1.41,1.2-.19,2.32-.08,3.34.33s1.84,1.07,2.44,1.97c.6.9.9,1.95.9,3.13v9.07c0,1.19-.3,2.33-.9,3.42-.6,1.1-1.42,2.02-2.44,2.76s-2.14,1.21-3.34,1.41c-1.21.2-2.33.09-3.36-.33s-1.84-1.07-2.43-1.98-.9-1.95-.9-3.13Zm4.96-.8c0,.5.16.88.5,1.16.33.28.74.38,1.24.3.48-.08.88-.31,1.22-.7.34-.39.51-.83.51-1.31v-9.07c0-.49-.17-.87-.51-1.15-.34-.28-.75-.38-1.22-.31-.5.08-.91.31-1.24.69-.33.38-.5.82-.5,1.32v9.07Z"/>
      <path class="cls-2" d="m192,217.76v-20.9l4.96-.8v7.74l2.78-.45v-7.74l4.96-.8v20.9l-4.96.8v-8.32l-2.78.45v8.32l-4.96.8Z"/>
      <path class="cls-2" d="m207.66,215.24v-20.9l10.62-1.71v4.84l-5.67.91v2.99l5.35-.86v4.69l-5.35.86v3.54l5.67-.91v4.84l-10.62,1.71Z"/>
      <path class="cls-2" d="m219.77,213.29l4.93-21.72,5.89-.95,4.78,20.16-5.17.83-.71-3.79-3.93.63-.74,4.03-5.03.81Zm6.6-9.33l2.3-.37-1.14-6.36-1.17,6.73Z"/>
      <path class="cls-2" d="m237.15,210.49v-20.9l6.69-1.08c1.85-.3,3.3.04,4.36,1.02,1.06.98,1.59,2.38,1.59,4.2,0,.82-.2,1.64-.6,2.46-.4.83-.93,1.6-1.58,2.3,1.46.58,2.19,1.93,2.19,4.04v5.92l-4.96.8v-5.76c0-.72-.13-1.23-.39-1.53-.26-.3-.7-.4-1.32-.3l-1.02.17v7.86l-4.96.8Zm4.96-13.36l1.17-.19c.47-.08.85-.29,1.16-.64.31-.35.46-.8.46-1.36s-.15-.97-.46-1.23c-.31-.26-.69-.35-1.16-.27l-1.17.19v3.5Z"/>
      <path class="cls-2" d="m259.46,206.89v-20.9l10.45-1.68v4.84l-5.49.89v2.99l5.26-.85v4.69l-5.26.85v8.38l-4.96.8Z"/>
      <path class="cls-2" d="m272.43,204.8v-20.9l6.69-1.08c1.84-.3,3.3.04,4.36,1.02,1.06.98,1.59,2.38,1.59,4.2,0,.82-.2,1.64-.6,2.47-.4.83-.93,1.6-1.58,2.3,1.46.58,2.19,1.93,2.19,4.03v5.92l-4.96.8v-5.76c0-.72-.13-1.23-.39-1.53-.26-.3-.7-.4-1.32-.3l-1.02.16v7.86l-4.96.8Zm4.96-13.36l1.17-.19c.47-.08.85-.29,1.16-.64.31-.35.46-.8.46-1.36s-.15-.97-.46-1.23c-.31-.26-.69-.35-1.16-.27l-1.17.19v3.5Z"/>
      <path class="cls-2" d="m287.52,196.46v-9.07c0-1.19.3-2.33.9-3.42.6-1.1,1.41-2.02,2.43-2.76,1.02-.74,2.14-1.21,3.36-1.41,1.2-.19,2.32-.08,3.34.33,1.03.41,1.84,1.07,2.44,1.97s.9,1.95.9,3.13v9.07c0,1.19-.3,2.33-.9,3.42-.6,1.1-1.42,2.02-2.44,2.76-1.02.74-2.14,1.21-3.34,1.41-1.21.2-2.33.09-3.36-.33-1.03-.41-1.84-1.07-2.43-1.98-.6-.9-.9-1.95-.9-3.13Zm4.96-.8c0,.5.17.88.5,1.16.33.28.74.38,1.24.3.48-.08.88-.31,1.22-.7.34-.39.51-.83.51-1.31v-9.07c0-.49-.17-.87-.51-1.15-.34-.28-.75-.38-1.22-.31-.5.08-.91.31-1.24.69-.33.38-.5.82-.5,1.32v9.06Z"/>
      <path class="cls-2" d="m303.62,199.78v-20.9l5.64-.91,3.5,10.54,3.59-11.68,5.64-.91v20.9l-4.96.8v-10.48l-2.78,10.93-2.95.47-2.72-9.89v10.33l-4.96.8Z"/>
      <path class="cls-2" d="m330.47,174.55l5.26-.85,2.33,6.91,2.32-7.66,5.01-.81-5.01,13.73v7.97l-4.96.8v-7.97l-4.96-12.13Z"/>
      <path class="cls-2" d="m346.05,187.02v-9.07c0-1.19.3-2.33.9-3.42.6-1.1,1.41-2.02,2.43-2.76,1.03-.74,2.15-1.21,3.36-1.41,1.2-.19,2.32-.08,3.34.33,1.02.41,1.84,1.07,2.44,1.98.6.9.9,1.95.9,3.13v9.07c0,1.19-.3,2.33-.9,3.42-.6,1.1-1.42,2.02-2.44,2.76-1.03.74-2.14,1.21-3.34,1.41-1.21.2-2.33.09-3.36-.33-1.02-.41-1.83-1.07-2.43-1.98-.6-.9-.9-1.95-.9-3.13Zm4.96-.8c0,.5.17.88.5,1.16.33.28.74.38,1.24.3.48-.08.88-.31,1.22-.7s.51-.83.51-1.31v-9.07c0-.49-.17-.87-.51-1.15s-.75-.38-1.22-.31c-.5.08-.91.31-1.24.69-.33.38-.5.82-.5,1.32v9.07Z"/>
      <path class="cls-2" d="m362.15,184.43v-14.98l4.96-.8v14.98c0,.5.17.88.5,1.16.33.28.74.38,1.24.3.48-.08.88-.31,1.22-.7.34-.39.51-.83.51-1.31v-14.98l4.96-.8v14.98c0,1.19-.3,2.33-.9,3.42s-1.42,2.02-2.44,2.76c-1.03.74-2.14,1.21-3.34,1.41-1.21.2-2.33.09-3.36-.33-1.03-.41-1.84-1.07-2.43-1.98-.6-.9-.9-1.95-.9-3.13Z"/>
      <path class="cls-2" d="m378.5,187.71v-4.53l4.47-.72v4.53l-4.47.72Zm.03-20.9l4.45-.72-.44,15.08-3.7.6-.31-14.96Z"/>
    </g>
  </g>
  <g>
    <polygon class="cls-1" points="423.76 142.5 0 211.73 0 69.23 423.76 0 423.76 142.5"/>
    <g>
      <path class="cls-2" d="m66.94,125.49v-43.03l21.88-3.74v9.96l-11.67,2v6.15l11.01-1.88v9.66l-11.01,1.88v7.29l11.67-2v9.96l-21.88,3.74Z"/>
      <path class="cls-2" d="m91.88,78.19l10.65-1.82,5.46,25.62,5.34-27.47,10.2-1.75-10.74,44.87-10.71,1.83-10.2-41.29Z"/>
      <path class="cls-2" d="m127.26,115.17v-43.03l21.88-3.74v9.96l-11.67,2v6.15l11.01-1.88v9.66l-11.01,1.88v7.29l11.67-2v9.96l-21.88,3.74Z"/>
      <path class="cls-2" d="m154.66,110.48v-43.03l13.77-2.36c3.8-.65,6.79.02,8.97,2.02,2.18,2,3.27,4.87,3.27,8.61,0,1.68-.42,3.38-1.25,5.09s-1.92,3.3-3.26,4.77c3,1.17,4.5,3.92,4.5,8.26v12.18l-10.2,1.75v-11.85c0-1.48-.27-2.53-.79-3.13-.53-.61-1.44-.8-2.72-.59l-2.1.36v16.17l-10.2,1.75Zm10.2-27.61l2.4-.41c.96-.16,1.76-.61,2.39-1.34.63-.73.95-1.66.95-2.8s-.31-2-.95-2.52-1.43-.7-2.39-.54l-2.4.41v7.2Z"/>
      <path class="cls-2" d="m182.5,62.68l10.83-1.85,4.8,14.18,4.77-15.82,10.32-1.77-10.32,28.38v16.41l-10.2,1.75v-16.41l-10.2-24.87Z"/>
      <path class="cls-2" d="m229.35,84.61v-.81l9.39-1.61v.63c0,1.8.26,3.07.78,3.8.52.73,1.31,1.01,2.36.83,1.83-.31,2.74-1.42,2.74-3.32,0-.44-.04-.82-.1-1.15-.07-.33-.31-.75-.72-1.26-.41-.51-.99-.97-1.74-1.38l-4.64-2.72c-3-1.65-5.06-3.43-6.19-5.36-1.13-1.93-1.69-4.27-1.69-7.03,0-2.34.63-4.53,1.88-6.58,1.25-2.05,2.87-3.71,4.83-4.98,1.97-1.28,4.08-2.11,6.32-2.49,1.32-.23,2.56-.3,3.72-.22,1.16.08,2.29.38,3.39.89,1.1.51,2.04,1.24,2.82,2.17s1.4,2.21,1.87,3.81.7,3.47.7,5.61v.78l-9,1.54v-.9c0-3.36-1.11-4.85-3.32-4.47-2.01.34-3.01,1.44-3.01,3.28,0,1.52.86,2.78,2.57,3.79l5.88,3.28c2.76,1.67,4.63,3.39,5.62,5.17.99,1.78,1.48,3.83,1.48,6.15,0,2.48-.6,4.78-1.8,6.91-1.2,2.13-2.78,3.85-4.74,5.16s-4.13,2.18-6.51,2.58c-1.77.3-3.38.33-4.85.09-1.47-.24-2.82-.78-4.06-1.63-1.24-.85-2.22-2.17-2.92-3.96-.7-1.79-1.05-4-1.05-6.62Z"/>
      <path class="cls-2" d="m259.81,92.48v-43.03l10.2-1.75v33.07l10.71-1.83v9.96l-20.92,3.58Z"/>
      <path class="cls-2" d="m284.83,37.19c0-1.6.58-3.08,1.74-4.44,1.16-1.36,2.54-2.18,4.14-2.45s2.99.07,4.16,1.04,1.76,2.25,1.76,3.83-.57,3.07-1.71,4.42c-1.14,1.35-2.5,2.15-4.08,2.42s-3-.07-4.2-1.02c-1.2-.95-1.8-2.22-1.8-3.8Zm.78,50.88v-43.03l10.2-1.75v43.03l-10.2,1.75Z"/>
      <path class="cls-2" d="m301.46,73.17v-18.67c0-2.44.62-4.8,1.85-7.07,1.23-2.27,2.9-4.18,5.01-5.73,2.11-1.55,4.42-2.54,6.92-2.97s4.78-.22,6.89.61c2.11.83,3.79,2.17,5.03,4.02,1.24,1.85,1.86,3.99,1.86,6.43v4.74l-10.2,1.75v-4.74c0-1-.35-1.79-1.05-2.36-.7-.57-1.54-.77-2.52-.6s-1.87.66-2.55,1.46c-.68.8-1.02,1.71-1.02,2.73v18.67c0,1.02.34,1.81,1.02,2.38.68.56,1.53.76,2.55.58s1.82-.66,2.52-1.47c.7-.81,1.05-1.72,1.05-2.72v-4.77l10.2-1.75v4.77c0,2.44-.62,4.8-1.86,7.07-1.24,2.27-2.92,4.19-5.03,5.74-2.11,1.55-4.41,2.54-6.89,2.96s-4.81.23-6.92-.6c-2.11-.83-3.78-2.17-5.01-4.02-1.23-1.85-1.85-4-1.85-6.44Z"/>
      <path class="cls-2" d="m334.32,79.73v-43.03l21.88-3.74v9.96l-11.67,2v6.15l11.01-1.89v9.66l-11.01,1.89v7.29l11.67-2v9.96l-21.88,3.74Z"/>
      <path class="cls-2" d="m39.14,150.31v-9.96l25.45-4.36v9.96l-7.62,1.3v33.07l-10.2,1.75v-33.07l-7.62,1.3Z"/>
      <path class="cls-2" d="m69.48,178.18v-43.03l21.88-3.74v9.96l-11.67,2v6.15l11.01-1.88v9.66l-11.01,1.88v7.29l11.67-2v9.96l-21.88,3.74Z"/>
      <path class="cls-2" d="m96.87,173.5v-43.03l10.2-1.75v33.07l10.71-1.83v9.96l-20.92,3.58Z"/>
      <path class="cls-2" d="m122.68,169.08v-43.03l10.2-1.75v33.07l10.71-1.83v9.96l-20.92,3.58Z"/>
      <path class="cls-2" d="m145.91,152.02v-.81l9.39-1.61v.63c0,1.8.26,3.07.78,3.8.52.73,1.31,1.01,2.36.83,1.83-.31,2.74-1.42,2.74-3.32,0-.44-.04-.82-.1-1.15-.07-.33-.31-.75-.72-1.26-.41-.51-.99-.97-1.75-1.38l-4.64-2.72c-3-1.65-5.06-3.43-6.19-5.36-1.13-1.93-1.69-4.27-1.69-7.03,0-2.34.63-4.53,1.88-6.58,1.25-2.05,2.87-3.71,4.83-4.98,1.97-1.28,4.08-2.11,6.32-2.49,1.32-.23,2.56-.3,3.72-.22,1.16.08,2.29.38,3.39.89,1.1.51,2.04,1.24,2.82,2.17.78.94,1.4,2.21,1.87,3.81.47,1.6.7,3.47.7,5.61v.78l-9,1.54v-.9c0-3.36-1.11-4.85-3.32-4.47-2.01.34-3.01,1.44-3.01,3.28,0,1.52.85,2.78,2.56,3.79l5.88,3.28c2.76,1.67,4.63,3.39,5.62,5.17.99,1.78,1.48,3.83,1.48,6.15,0,2.48-.6,4.78-1.8,6.91-1.2,2.13-2.78,3.85-4.74,5.16-1.96,1.32-4.13,2.18-6.5,2.58-1.77.3-3.38.33-4.85.09-1.47-.24-2.82-.78-4.06-1.63-1.24-.85-2.22-2.17-2.92-3.96-.7-1.79-1.05-4-1.05-6.62Z"/>
      <path class="cls-2" d="m187.71,157.95l10.14-44.83,12.12-2.08,9.84,41.41-10.65,1.82-1.47-7.79-8.1,1.39-1.53,8.3-10.35,1.77Zm13.59-19.34l4.74-.81-2.34-13.07-2.4,13.88Z"/>
      <path class="cls-2" d="m235.93,136.61v-.81l9.39-1.61v.63c0,1.8.26,3.07.78,3.8.52.73,1.31,1.01,2.36.83,1.83-.31,2.74-1.42,2.74-3.32,0-.44-.04-.82-.1-1.15-.07-.33-.31-.75-.72-1.26-.41-.51-.99-.97-1.74-1.38l-4.64-2.72c-3-1.65-5.06-3.43-6.19-5.36-1.13-1.93-1.69-4.27-1.69-7.03,0-2.34.63-4.53,1.88-6.58,1.25-2.05,2.87-3.71,4.83-4.98,1.97-1.28,4.08-2.11,6.32-2.49,1.32-.23,2.56-.3,3.72-.22,1.16.08,2.29.38,3.39.89,1.1.51,2.04,1.24,2.82,2.17s1.4,2.21,1.87,3.81.7,3.47.7,5.61v.78l-9,1.54v-.9c0-3.36-1.11-4.85-3.32-4.47-2.01.34-3.01,1.44-3.01,3.28,0,1.52.86,2.78,2.57,3.79l5.88,3.28c2.76,1.67,4.63,3.39,5.62,5.17.99,1.78,1.48,3.83,1.48,6.15,0,2.48-.6,4.78-1.8,6.91-1.2,2.13-2.78,3.85-4.74,5.16s-4.13,2.18-6.51,2.58c-1.77.3-3.38.33-4.85.09-1.47-.24-2.82-.78-4.06-1.63-1.24-.85-2.22-2.17-2.92-3.96-.7-1.79-1.05-4-1.05-6.62Z"/>
      <path class="cls-2" d="m264.56,111.72v-9.96l25.45-4.36v9.96l-7.62,1.3v33.07l-10.2,1.75v-33.07l-7.62,1.3Z"/>
      <path class="cls-2" d="m292.89,127.76v-18.67c0-2.44.62-4.8,1.85-7.07,1.23-2.27,2.9-4.18,5.01-5.73,2.11-1.55,4.42-2.54,6.92-2.97s4.78-.22,6.89.61c2.11.83,3.79,2.17,5.03,4.02,1.24,1.85,1.86,3.99,1.86,6.43v18.67c0,2.44-.62,4.8-1.86,7.07-1.24,2.27-2.92,4.19-5.03,5.74-2.11,1.55-4.41,2.54-6.89,2.96s-4.81.23-6.92-.6c-2.11-.83-3.78-2.17-5.01-4.02-1.23-1.85-1.85-4-1.85-6.44Zm10.2-1.75c0,1.02.34,1.81,1.02,2.38.68.56,1.53.76,2.55.58s1.82-.66,2.52-1.47c.7-.81,1.05-1.72,1.05-2.72v-18.67c0-1-.35-1.79-1.05-2.36-.7-.57-1.54-.77-2.52-.6s-1.87.66-2.55,1.46c-.68.8-1.02,1.71-1.02,2.73v18.67Z"/>
      <path class="cls-2" d="m326.05,134.27v-43.03l13.77-2.36c3.8-.65,6.79.02,8.97,2.02,2.18,2,3.27,4.87,3.27,8.61,0,1.68-.42,3.38-1.25,5.09s-1.92,3.3-3.26,4.77c3,1.17,4.5,3.92,4.5,8.26v12.18l-10.2,1.75v-11.85c0-1.48-.27-2.53-.8-3.13-.53-.61-1.44-.8-2.72-.59l-2.1.36v16.17l-10.2,1.75Zm10.2-27.61l2.4-.41c.96-.16,1.76-.61,2.39-1.34.63-.73.95-1.66.95-2.8s-.32-2-.95-2.52-1.43-.7-2.39-.54l-2.4.41v7.2Z"/>
      <path class="cls-2" d="m353.9,86.47l10.83-1.85,4.8,14.18,4.77-15.82,10.32-1.77-10.32,28.38v16.41l-10.2,1.75v-16.41l-10.2-24.87Z"/>
    </g>
  </g>
  <g>
    <path class="cls-4" d="m125.36,15.63l-23.56,3.82-.27-1.66c-.04-.26-.24-.46-.42-.43l-3.41.55c-.18.03-.31.29-.27.54l.27,1.66-6.74,1.09c-.36.06-.61.4-.56.77l3.25,20.06c.07.36.4.6.76.54l6.33-1.03.65,4.04c.06.37.4.62.76.57l2.37-.38c-.23,2.78,1.81,5.23,4.57,5.48,2.76.24,5.19-1.81,5.42-4.6.07-.83-.07-1.67-.39-2.44l15.45-2.5c.36-.07.61-.41.55-.78l-4.01-24.75c-.06-.36-.4-.61-.76-.56Zm23.5,16.71l-.62-3.83c-.08-.46-9.94-10.93-10.59-11.56-.6-.58-.76-.76-1.96-.66s-6.81.81-7.56.93-.81.55-.76.87l3.74,23.1c.14.86.84.82,1.59.7l8.81-1.43c-.37,2.32,1.21,4.51,3.51,4.88,2.3.37,4.46-1.2,4.83-3.52.25-1.59-.41-3.18-1.7-4.12l.16-.26c.35-.77.54-4.82.53-5.09h.01Zm-17.03-5.82l-1.12-6.93c-.07-.35.15-.69.5-.76,0,0,0,0,0,0l5.02-.66c.44-.05.88.11,1.19.43l5.42,6.13-11.01,1.8Z"/>
    <circle class="cls-4" cx="90.4" cy="48.32" r="2.33"/>
    <circle class="cls-4" cx="72.34" cy="37.59" r="2.33"/>
    <circle class="cls-4" cx="83.38" cy="41.81" r="5.05"/>
    <circle class="cls-4" cx="71.59" cy="48.1" r="6.75"/>
    <circle class="cls-4" cx="56.24" cy="38.27" r="8.59"/>
  </g>
</svg>